<svg xmlns="http://www.w3.org/2000/svg" viewBox="0 0 1254 1254"><path fill="#000" fill-rule="evenodd" d="M121.655 31.597 C 94.032 36.588,67.883 52.982,50.218 76.386 C 44.349 84.160,36.151 100.272,33.113 110.000 C 27.641 127.523,27.997 91.096,28.035 628.860 C 28.073 1165.055,27.715 1130.452,33.386 1147.283 C 39.222 1164.606,48.589 1179.727,61.433 1192.556 C 80.433 1211.534,103.041 1222.771,128.500 1225.891 C 134.459 1226.622,167.402 1226.983,226.000 1226.962 L 314.500 1226.929 325.137 1212.214 C 346.511 1182.647,358.128 1164.883,372.829 1139.290 C 381.380 1124.403,396.134 1095.505,400.547 1085.000 C 407.826 1067.672,413.000 1048.146,413.000 1038.000 C 413.000 1022.553,404.798 998.063,385.704 956.500 C 380.341 944.827,327.498 839.137,312.456 810.000 C 273.570 734.677,239.133 664.916,236.188 655.500 C 229.084 632.784,230.015 616.395,239.358 599.688 C 251.503 577.970,278.117 562.285,312.988 556.292 C 327.870 553.735,356.307 553.987,371.282 556.808 C 386.922 559.755,400.119 564.035,413.500 570.499 C 437.855 582.265,459.004 599.265,513.000 650.478 C 581.024 714.996,612.041 740.598,660.500 772.225 C 700.349 798.232,735.004 814.573,770.000 823.858 C 780.827 826.731,798.430 830.000,803.071 830.000 C 804.486 830.000,801.334 827.033,793.332 820.833 C 736.571 776.858,670.452 713.284,637.174 670.688 C 607.179 632.292,592.714 600.902,592.621 574.000 C 592.512 542.753,610.999 522.751,651.183 510.636 C 668.531 505.405,683.759 503.026,732.090 497.994 C 780.422 492.963,805.453 487.380,828.852 476.414 C 840.943 470.746,848.686 465.151,858.155 455.236 C 879.445 432.944,884.489 405.632,871.964 380.464 C 858.818 354.046,830.663 336.536,790.040 329.512 C 769.477 325.957,760.385 325.743,599.500 325.026 C 420.757 324.230,431.959 324.716,416.468 317.079 C 403.327 310.601,393.468 299.467,388.946 286.000 C 386.250 277.972,385.333 264.523,386.950 256.737 C 389.908 242.497,400.210 229.035,413.076 222.599 C 427.332 215.467,414.436 215.873,613.500 216.279 C 809.310 216.678,799.316 216.385,827.845 222.554 C 905.536 239.351,967.142 296.254,984.354 367.115 C 988.109 382.574,989.010 388.590,989.918 404.265 C 992.766 453.400,976.274 500.272,944.671 532.864 C 900.846 578.061,841.407 598.829,737.251 605.336 C 725.565 606.067,715.712 606.954,715.357 607.309 C 714.327 608.340,729.882 624.725,768.500 663.287 C 875.479 770.114,940.633 824.930,1021.321 875.993 C 1038.819 887.067,1043.370 890.895,1047.797 898.264 C 1056.185 912.226,1053.395 933.658,1041.662 945.391 C 1036.680 950.373,1028.260 955.019,1019.948 957.371 C 1000.479 962.881,947.808 962.107,887.000 955.418 C 817.079 947.727,755.703 932.412,699.000 908.505 C 681.217 901.008,646.418 883.879,632.000 875.527 C 582.713 846.975,531.162 805.850,469.000 745.493 C 413.577 691.680,389.950 671.209,373.500 662.752 C 365.250 658.510,345.208 654.309,337.261 655.155 L 334.023 655.500 347.105 678.500 C 407.403 784.508,452.455 868.821,469.957 908.414 C 496.436 968.313,507.653 1016.470,504.096 1054.981 C 499.441 1105.387,476.363 1157.912,434.293 1213.853 C 429.182 1220.649,425.000 1226.388,425.000 1226.605 C 425.000 1226.822,581.555 1227.000,772.901 1227.000 C 1113.703 1227.000,1121.033 1226.960,1132.151 1225.043 C 1149.833 1221.995,1162.379 1217.063,1177.061 1207.391 C 1191.655 1197.776,1208.311 1179.149,1216.154 1163.671 C 1220.830 1154.445,1225.742 1138.427,1227.439 1126.872 C 1228.837 1117.353,1229.000 1065.256,1229.000 627.845 C 1229.000 305.226,1228.657 136.715,1227.991 131.398 C 1221.758 81.694,1183.557 40.771,1134.750 31.512 C 1127.699 30.175,1069.203 30.010,628.140 30.090 C 202.468 30.166,128.352 30.387,121.655 31.597 "/></svg>
